<mxfile host="app.diagrams.net" agent="Mozilla/5.0 (X11; Ubuntu; Linux x86_64; rv:129.0) Gecko/20100101 Firefox/129.0" version="24.7.17">
  <diagram name="Page-1" id="b520641d-4fe3-3701-9064-5fc419738815">
    <mxGraphModel dx="1609" dy="929" grid="1" gridSize="10" guides="1" tooltips="1" connect="1" arrows="1" fold="1" page="1" pageScale="1" pageWidth="1100" pageHeight="850" background="none" math="0" shadow="0">
      <root>
        <mxCell id="0" />
        <mxCell id="1" parent="0" />
        <mxCell id="21ea969265ad0168-18" value="Camera" style="swimlane;html=1;fontStyle=0;childLayout=stackLayout;horizontal=1;startSize=26;fillColor=#dae8fc;horizontalStack=0;resizeParent=1;resizeLast=0;collapsible=1;marginBottom=0;swimlaneFillColor=#ffffff;align=center;rounded=1;shadow=0;comic=0;labelBackgroundColor=none;strokeWidth=1;fontFamily=Verdana;fontSize=12;strokeColor=#6c8ebf;" parent="1" vertex="1">
          <mxGeometry x="110" y="150" width="160" height="80" as="geometry" />
        </mxCell>
        <mxCell id="21ea969265ad0168-19" value="Compressed RGB Image" style="text;html=1;strokeColor=none;fillColor=none;spacingLeft=4;spacingRight=4;whiteSpace=wrap;overflow=hidden;rotatable=0;points=[[0,0.5],[1,0.5]];portConstraint=eastwest;" parent="21ea969265ad0168-18" vertex="1">
          <mxGeometry y="26" width="160" height="26" as="geometry" />
        </mxCell>
        <mxCell id="21ea969265ad0168-20" value="Processed Data" style="text;html=1;strokeColor=none;fillColor=none;spacingLeft=4;spacingRight=4;whiteSpace=wrap;overflow=hidden;rotatable=0;points=[[0,0.5],[1,0.5]];portConstraint=eastwest;" parent="21ea969265ad0168-18" vertex="1">
          <mxGeometry y="52" width="160" height="26" as="geometry" />
        </mxCell>
        <mxCell id="xQ2Ws-LIwKOXXfK9XPwc-2" value="Arduino" style="swimlane;html=1;fontStyle=0;childLayout=stackLayout;horizontal=1;startSize=26;fillColor=#dae8fc;horizontalStack=0;resizeParent=1;resizeLast=0;collapsible=1;marginBottom=0;swimlaneFillColor=#ffffff;align=center;rounded=1;shadow=0;comic=0;labelBackgroundColor=none;strokeWidth=1;fontFamily=Verdana;fontSize=12;strokeColor=#6c8ebf;" parent="1" vertex="1">
          <mxGeometry x="320" y="40" width="160" height="110" as="geometry" />
        </mxCell>
        <mxCell id="xQ2Ws-LIwKOXXfK9XPwc-3" value="IR data" style="text;html=1;strokeColor=none;fillColor=none;spacingLeft=4;spacingRight=4;whiteSpace=wrap;overflow=hidden;rotatable=0;points=[[0,0.5],[1,0.5]];portConstraint=eastwest;" parent="xQ2Ws-LIwKOXXfK9XPwc-2" vertex="1">
          <mxGeometry y="26" width="160" height="26" as="geometry" />
        </mxCell>
        <mxCell id="xQ2Ws-LIwKOXXfK9XPwc-4" value="Motor Control" style="text;html=1;strokeColor=none;fillColor=none;spacingLeft=4;spacingRight=4;whiteSpace=wrap;overflow=hidden;rotatable=0;points=[[0,0.5],[1,0.5]];portConstraint=eastwest;" parent="xQ2Ws-LIwKOXXfK9XPwc-2" vertex="1">
          <mxGeometry y="52" width="160" height="28" as="geometry" />
        </mxCell>
        <mxCell id="xQ2Ws-LIwKOXXfK9XPwc-54" value="Encoders" style="text;html=1;strokeColor=none;fillColor=none;spacingLeft=4;spacingRight=4;whiteSpace=wrap;overflow=hidden;rotatable=0;points=[[0,0.5],[1,0.5]];portConstraint=eastwest;" parent="xQ2Ws-LIwKOXXfK9XPwc-2" vertex="1">
          <mxGeometry y="80" width="160" height="30" as="geometry" />
        </mxCell>
        <mxCell id="xQ2Ws-LIwKOXXfK9XPwc-6" value="" style="edgeStyle=orthogonalEdgeStyle;rounded=0;orthogonalLoop=1;jettySize=auto;html=1;entryX=0.5;entryY=0;entryDx=0;entryDy=0;fillColor=#ffe6cc;strokeColor=#d79b00;strokeWidth=4;" parent="1" source="xQ2Ws-LIwKOXXfK9XPwc-5" target="21ea969265ad0168-18" edge="1">
          <mxGeometry relative="1" as="geometry" />
        </mxCell>
        <mxCell id="xQ2Ws-LIwKOXXfK9XPwc-5" value="Pi Camera" style="html=1;rounded=0;shadow=0;comic=0;labelBackgroundColor=none;strokeWidth=2;fontFamily=Verdana;fontSize=12;align=center;shape=mxgraph.ios7ui.horLines;fillColor=#f8cecc;strokeColor=#b85450;" parent="1" vertex="1">
          <mxGeometry x="30" y="40" width="135" height="50" as="geometry" />
        </mxCell>
        <mxCell id="xQ2Ws-LIwKOXXfK9XPwc-9" style="edgeStyle=orthogonalEdgeStyle;rounded=0;orthogonalLoop=1;jettySize=auto;html=1;entryX=0.5;entryY=0;entryDx=0;entryDy=0;fillColor=#ffe6cc;strokeColor=#d79b00;strokeWidth=4;" parent="1" source="xQ2Ws-LIwKOXXfK9XPwc-8" target="xQ2Ws-LIwKOXXfK9XPwc-2" edge="1">
          <mxGeometry relative="1" as="geometry">
            <Array as="points">
              <mxPoint x="640" y="65" />
              <mxPoint x="640" y="20" />
              <mxPoint x="400" y="20" />
            </Array>
          </mxGeometry>
        </mxCell>
        <mxCell id="xQ2Ws-LIwKOXXfK9XPwc-12" value="Encoder, IR" style="edgeLabel;html=1;align=center;verticalAlign=middle;resizable=0;points=[];" parent="xQ2Ws-LIwKOXXfK9XPwc-9" vertex="1" connectable="0">
          <mxGeometry x="0.2567" y="4" relative="1" as="geometry">
            <mxPoint x="1" as="offset" />
          </mxGeometry>
        </mxCell>
        <mxCell id="xQ2Ws-LIwKOXXfK9XPwc-8" value="Arduino" style="html=1;rounded=0;shadow=0;comic=0;labelBackgroundColor=none;strokeWidth=2;fontFamily=Verdana;fontSize=12;align=center;shape=mxgraph.ios7ui.horLines;fillColor=#f8cecc;strokeColor=#b85450;" parent="1" vertex="1">
          <mxGeometry x="695" y="40" width="135" height="50" as="geometry" />
        </mxCell>
        <mxCell id="xQ2Ws-LIwKOXXfK9XPwc-10" style="edgeStyle=orthogonalEdgeStyle;rounded=0;orthogonalLoop=1;jettySize=auto;html=1;entryX=0;entryY=0.78;entryDx=0;entryDy=0;entryPerimeter=0;fillColor=#6d8764;strokeColor=#3A5431;strokeWidth=5;exitX=1;exitY=0.15;exitDx=0;exitDy=0;exitPerimeter=0;" parent="1" source="xQ2Ws-LIwKOXXfK9XPwc-2" target="xQ2Ws-LIwKOXXfK9XPwc-8" edge="1">
          <mxGeometry relative="1" as="geometry">
            <Array as="points">
              <mxPoint x="570" y="52" />
              <mxPoint x="570" y="79" />
            </Array>
          </mxGeometry>
        </mxCell>
        <mxCell id="xQ2Ws-LIwKOXXfK9XPwc-11" value="Motor Control" style="edgeLabel;html=1;align=center;verticalAlign=middle;resizable=0;points=[];" parent="xQ2Ws-LIwKOXXfK9XPwc-10" vertex="1" connectable="0">
          <mxGeometry x="-0.1652" y="-3" relative="1" as="geometry">
            <mxPoint x="18" y="-2" as="offset" />
          </mxGeometry>
        </mxCell>
        <mxCell id="xQ2Ws-LIwKOXXfK9XPwc-34" style="edgeStyle=orthogonalEdgeStyle;rounded=0;orthogonalLoop=1;jettySize=auto;html=1;entryX=0.5;entryY=0;entryDx=0;entryDy=0;fillColor=#ffe6cc;strokeColor=#d79b00;strokeWidth=4;" parent="1" source="xQ2Ws-LIwKOXXfK9XPwc-13" target="xQ2Ws-LIwKOXXfK9XPwc-31" edge="1">
          <mxGeometry relative="1" as="geometry" />
        </mxCell>
        <mxCell id="xQ2Ws-LIwKOXXfK9XPwc-13" value="Host" style="html=1;rounded=0;shadow=0;comic=0;labelBackgroundColor=none;strokeWidth=2;fontFamily=Verdana;fontSize=12;align=center;shape=mxgraph.ios7ui.horLines;fillColor=#f8cecc;strokeColor=#b85450;" parent="1" vertex="1">
          <mxGeometry x="830" y="170" width="135" height="50" as="geometry" />
        </mxCell>
        <mxCell id="xQ2Ws-LIwKOXXfK9XPwc-14" value="FSM Planner" style="swimlane;html=1;fontStyle=0;childLayout=stackLayout;horizontal=1;startSize=26;fillColor=#dae8fc;horizontalStack=0;resizeParent=1;resizeLast=0;collapsible=1;marginBottom=0;swimlaneFillColor=#ffffff;align=center;rounded=1;shadow=0;comic=0;labelBackgroundColor=none;strokeWidth=1;fontFamily=Verdana;fontSize=12;strokeColor=#6c8ebf;" parent="1" vertex="1">
          <mxGeometry x="430" y="330" width="160" height="52" as="geometry" />
        </mxCell>
        <mxCell id="xQ2Ws-LIwKOXXfK9XPwc-15" value="Motor Control" style="text;html=1;strokeColor=none;fillColor=none;spacingLeft=4;spacingRight=4;whiteSpace=wrap;overflow=hidden;rotatable=0;points=[[0,0.5],[1,0.5]];portConstraint=eastwest;" parent="xQ2Ws-LIwKOXXfK9XPwc-14" vertex="1">
          <mxGeometry y="26" width="160" height="26" as="geometry" />
        </mxCell>
        <mxCell id="xQ2Ws-LIwKOXXfK9XPwc-31" value="Livraison" style="swimlane;html=1;fontStyle=0;childLayout=stackLayout;horizontal=1;startSize=26;fillColor=#dae8fc;horizontalStack=0;resizeParent=1;resizeLast=0;collapsible=1;marginBottom=0;swimlaneFillColor=#ffffff;align=center;rounded=1;shadow=0;comic=0;labelBackgroundColor=none;strokeWidth=1;fontFamily=Verdana;fontSize=12;strokeColor=#6c8ebf;" parent="1" vertex="1">
          <mxGeometry x="610" y="180" width="160" height="60" as="geometry" />
        </mxCell>
        <mxCell id="xQ2Ws-LIwKOXXfK9XPwc-32" value="Emplacement Livraison" style="text;html=1;strokeColor=none;fillColor=none;spacingLeft=4;spacingRight=4;whiteSpace=wrap;overflow=hidden;rotatable=0;points=[[0,0.5],[1,0.5]];portConstraint=eastwest;" parent="xQ2Ws-LIwKOXXfK9XPwc-31" vertex="1">
          <mxGeometry y="26" width="160" height="24" as="geometry" />
        </mxCell>
        <mxCell id="xQ2Ws-LIwKOXXfK9XPwc-36" style="edgeStyle=orthogonalEdgeStyle;rounded=0;orthogonalLoop=1;jettySize=auto;html=1;fillColor=#e51400;strokeColor=#B20000;endSize=6;strokeWidth=4;" parent="1" source="xQ2Ws-LIwKOXXfK9XPwc-32" target="xQ2Ws-LIwKOXXfK9XPwc-14" edge="1">
          <mxGeometry relative="1" as="geometry" />
        </mxCell>
        <mxCell id="xQ2Ws-LIwKOXXfK9XPwc-38" style="edgeStyle=orthogonalEdgeStyle;rounded=0;orthogonalLoop=1;jettySize=auto;html=1;entryX=0.006;entryY=0.155;entryDx=0;entryDy=0;entryPerimeter=0;fillColor=#6a00ff;strokeColor=#3700CC;strokeWidth=4;" parent="1" source="21ea969265ad0168-20" target="xQ2Ws-LIwKOXXfK9XPwc-14" edge="1">
          <mxGeometry relative="1" as="geometry" />
        </mxCell>
        <mxCell id="xQ2Ws-LIwKOXXfK9XPwc-39" style="edgeStyle=orthogonalEdgeStyle;rounded=0;orthogonalLoop=1;jettySize=auto;html=1;entryX=0.25;entryY=0;entryDx=0;entryDy=0;fillColor=#6a00ff;strokeColor=#3700CC;strokeWidth=4;" parent="1" source="xQ2Ws-LIwKOXXfK9XPwc-3" target="xQ2Ws-LIwKOXXfK9XPwc-14" edge="1">
          <mxGeometry relative="1" as="geometry" />
        </mxCell>
        <mxCell id="xQ2Ws-LIwKOXXfK9XPwc-40" value="IR Data, Encoder" style="edgeLabel;html=1;align=center;verticalAlign=middle;resizable=0;points=[];" parent="xQ2Ws-LIwKOXXfK9XPwc-39" vertex="1" connectable="0">
          <mxGeometry x="0.1271" y="-1" relative="1" as="geometry">
            <mxPoint as="offset" />
          </mxGeometry>
        </mxCell>
        <mxCell id="xQ2Ws-LIwKOXXfK9XPwc-45" style="edgeStyle=orthogonalEdgeStyle;rounded=0;orthogonalLoop=1;jettySize=auto;html=1;entryX=0;entryY=0.182;entryDx=0;entryDy=0;fillColor=#6a00ff;strokeColor=#3700CC;strokeWidth=4;entryPerimeter=0;" parent="1" source="xQ2Ws-LIwKOXXfK9XPwc-15" target="xQ2Ws-LIwKOXXfK9XPwc-2" edge="1">
          <mxGeometry relative="1" as="geometry">
            <mxPoint x="360" y="450" as="targetPoint" />
          </mxGeometry>
        </mxCell>
        <mxCell id="xQ2Ws-LIwKOXXfK9XPwc-46" style="edgeStyle=orthogonalEdgeStyle;rounded=0;orthogonalLoop=1;jettySize=auto;html=1;entryX=1;entryY=0.25;entryDx=0;entryDy=0;fillColor=#e51400;strokeColor=#B20000;endSize=6;strokeWidth=4;" parent="1" target="xQ2Ws-LIwKOXXfK9XPwc-43" edge="1">
          <mxGeometry relative="1" as="geometry">
            <mxPoint x="627.5" y="408" as="sourcePoint" />
          </mxGeometry>
        </mxCell>
        <mxCell id="xQ2Ws-LIwKOXXfK9XPwc-48" value="Hardware" style="whiteSpace=wrap;html=1;fillColor=#f8cecc;strokeColor=#b85450;" parent="1" vertex="1">
          <mxGeometry x="1005" y="10" width="80" height="30" as="geometry" />
        </mxCell>
        <mxCell id="xQ2Ws-LIwKOXXfK9XPwc-49" value="Node" style="whiteSpace=wrap;html=1;fillColor=#dae8fc;strokeColor=#6c8ebf;" parent="1" vertex="1">
          <mxGeometry x="1005" y="50" width="80" height="30" as="geometry" />
        </mxCell>
        <mxCell id="xQ2Ws-LIwKOXXfK9XPwc-50" value="Hardware -&amp;gt; Software" style="whiteSpace=wrap;html=1;fillColor=#ffe6cc;strokeColor=#d79b00;strokeWidth=4;" parent="1" vertex="1">
          <mxGeometry x="1005" y="90" width="80" height="40" as="geometry" />
        </mxCell>
        <mxCell id="xQ2Ws-LIwKOXXfK9XPwc-51" value="IPC" style="whiteSpace=wrap;html=1;fillColor=#6a00ff;strokeColor=#3700CC;strokeWidth=4;fontColor=#ffffff;" parent="1" vertex="1">
          <mxGeometry x="1005" y="140" width="80" height="40" as="geometry" />
        </mxCell>
        <mxCell id="xQ2Ws-LIwKOXXfK9XPwc-52" value="TCP IP" style="whiteSpace=wrap;html=1;fillColor=#e51400;strokeColor=#B20000;strokeWidth=4;fontColor=#ffffff;" parent="1" vertex="1">
          <mxGeometry x="1005" y="190" width="80" height="40" as="geometry" />
        </mxCell>
        <mxCell id="xQ2Ws-LIwKOXXfK9XPwc-53" value="Software -&amp;gt; Hardware" style="whiteSpace=wrap;html=1;fillColor=#6d8764;strokeColor=#3A5431;strokeWidth=4;fontColor=#ffffff;" parent="1" vertex="1">
          <mxGeometry x="1005" y="240" width="80" height="40" as="geometry" />
        </mxCell>
        <mxCell id="avrPTktZGKtekzQquFCX-1" value="Monitor" style="swimlane;html=1;fontStyle=0;childLayout=stackLayout;horizontal=1;startSize=26;fillColor=#dae8fc;horizontalStack=0;resizeParent=1;resizeLast=0;collapsible=1;marginBottom=0;swimlaneFillColor=#ffffff;align=center;rounded=1;shadow=0;comic=0;labelBackgroundColor=none;strokeWidth=1;fontFamily=Verdana;fontSize=12;strokeColor=#6c8ebf;" vertex="1" parent="1">
          <mxGeometry x="610" y="430" width="160" height="52" as="geometry" />
        </mxCell>
        <mxCell id="avrPTktZGKtekzQquFCX-2" value="Compressed RGB Image" style="text;html=1;strokeColor=none;fillColor=none;spacingLeft=4;spacingRight=4;whiteSpace=wrap;overflow=hidden;rotatable=0;points=[[0,0.5],[1,0.5]];portConstraint=eastwest;" vertex="1" parent="avrPTktZGKtekzQquFCX-1">
          <mxGeometry y="26" width="160" height="26" as="geometry" />
        </mxCell>
        <mxCell id="avrPTktZGKtekzQquFCX-3" style="edgeStyle=orthogonalEdgeStyle;rounded=0;orthogonalLoop=1;jettySize=auto;html=1;entryX=0.659;entryY=1.04;entryDx=0;entryDy=0;fillColor=#6d8764;strokeColor=#3A5431;strokeWidth=4;exitX=1;exitY=0.75;exitDx=0;exitDy=0;entryPerimeter=0;" edge="1" parent="1" source="avrPTktZGKtekzQquFCX-1" target="xQ2Ws-LIwKOXXfK9XPwc-13">
          <mxGeometry relative="1" as="geometry">
            <mxPoint x="840" y="205" as="sourcePoint" />
            <mxPoint x="700" y="190" as="targetPoint" />
          </mxGeometry>
        </mxCell>
        <mxCell id="avrPTktZGKtekzQquFCX-4" style="edgeStyle=orthogonalEdgeStyle;rounded=0;orthogonalLoop=1;jettySize=auto;html=1;fillColor=#e51400;strokeColor=#B20000;endSize=6;strokeWidth=4;exitX=0;exitY=0.5;exitDx=0;exitDy=0;entryX=-0.006;entryY=0.385;entryDx=0;entryDy=0;entryPerimeter=0;" edge="1" parent="1" source="21ea969265ad0168-19" target="avrPTktZGKtekzQquFCX-1">
          <mxGeometry relative="1" as="geometry">
            <mxPoint x="620" y="228" as="sourcePoint" />
            <mxPoint x="520" y="320" as="targetPoint" />
          </mxGeometry>
        </mxCell>
        <mxCell id="avrPTktZGKtekzQquFCX-8" value="Main Controller" style="swimlane;html=1;fontStyle=0;childLayout=stackLayout;horizontal=1;startSize=26;fillColor=#dae8fc;horizontalStack=0;resizeParent=1;resizeLast=0;collapsible=1;marginBottom=0;swimlaneFillColor=#ffffff;align=center;rounded=1;shadow=0;comic=0;labelBackgroundColor=none;strokeWidth=1;fontFamily=Verdana;fontSize=12;strokeColor=#6c8ebf;" vertex="1" parent="1">
          <mxGeometry x="164" y="607" width="160" height="160" as="geometry" />
        </mxCell>
        <mxCell id="avrPTktZGKtekzQquFCX-9" value="IR data" style="text;html=1;strokeColor=none;fillColor=none;spacingLeft=4;spacingRight=4;whiteSpace=wrap;overflow=hidden;rotatable=0;points=[[0,0.5],[1,0.5]];portConstraint=eastwest;" vertex="1" parent="avrPTktZGKtekzQquFCX-8">
          <mxGeometry y="26" width="160" height="26" as="geometry" />
        </mxCell>
        <mxCell id="avrPTktZGKtekzQquFCX-10" value="Motor Control" style="text;html=1;strokeColor=none;fillColor=none;spacingLeft=4;spacingRight=4;whiteSpace=wrap;overflow=hidden;rotatable=0;points=[[0,0.5],[1,0.5]];portConstraint=eastwest;" vertex="1" parent="avrPTktZGKtekzQquFCX-8">
          <mxGeometry y="52" width="160" height="28" as="geometry" />
        </mxCell>
        <mxCell id="avrPTktZGKtekzQquFCX-6" value="Compressed RGB Image" style="text;html=1;strokeColor=none;fillColor=none;spacingLeft=4;spacingRight=4;whiteSpace=wrap;overflow=hidden;rotatable=0;points=[[0,0.5],[1,0.5]];portConstraint=eastwest;" vertex="1" parent="avrPTktZGKtekzQquFCX-8">
          <mxGeometry y="80" width="160" height="26" as="geometry" />
        </mxCell>
        <mxCell id="avrPTktZGKtekzQquFCX-11" value="Encoders" style="text;html=1;strokeColor=none;fillColor=none;spacingLeft=4;spacingRight=4;whiteSpace=wrap;overflow=hidden;rotatable=0;points=[[0,0.5],[1,0.5]];portConstraint=eastwest;" vertex="1" parent="avrPTktZGKtekzQquFCX-8">
          <mxGeometry y="106" width="160" height="24" as="geometry" />
        </mxCell>
        <mxCell id="avrPTktZGKtekzQquFCX-7" value="Processed Data" style="text;html=1;strokeColor=none;fillColor=none;spacingLeft=4;spacingRight=4;whiteSpace=wrap;overflow=hidden;rotatable=0;points=[[0,0.5],[1,0.5]];portConstraint=eastwest;" vertex="1" parent="avrPTktZGKtekzQquFCX-8">
          <mxGeometry y="130" width="160" height="26" as="geometry" />
        </mxCell>
        <mxCell id="avrPTktZGKtekzQquFCX-14" style="edgeStyle=orthogonalEdgeStyle;rounded=0;orthogonalLoop=1;jettySize=auto;html=1;entryX=0.5;entryY=0;entryDx=0;entryDy=0;fillColor=#ffe6cc;strokeColor=#d79b00;strokeWidth=4;" edge="1" parent="1" source="avrPTktZGKtekzQquFCX-16" target="avrPTktZGKtekzQquFCX-8">
          <mxGeometry relative="1" as="geometry">
            <Array as="points">
              <mxPoint x="634" y="592" />
              <mxPoint x="634" y="547" />
              <mxPoint x="244" y="547" />
            </Array>
          </mxGeometry>
        </mxCell>
        <mxCell id="avrPTktZGKtekzQquFCX-15" value="Encoder, IR" style="edgeLabel;html=1;align=center;verticalAlign=middle;resizable=0;points=[];" vertex="1" connectable="0" parent="avrPTktZGKtekzQquFCX-14">
          <mxGeometry x="0.2567" y="4" relative="1" as="geometry">
            <mxPoint x="1" as="offset" />
          </mxGeometry>
        </mxCell>
        <mxCell id="avrPTktZGKtekzQquFCX-16" value="Webots" style="html=1;rounded=0;shadow=0;comic=0;labelBackgroundColor=none;strokeWidth=2;fontFamily=Verdana;fontSize=12;align=center;shape=mxgraph.ios7ui.horLines;fillColor=#f8cecc;strokeColor=#b85450;" vertex="1" parent="1">
          <mxGeometry x="689" y="567" width="135" height="50" as="geometry" />
        </mxCell>
        <mxCell id="avrPTktZGKtekzQquFCX-17" style="edgeStyle=orthogonalEdgeStyle;rounded=0;orthogonalLoop=1;jettySize=auto;html=1;entryX=0;entryY=0.78;entryDx=0;entryDy=0;entryPerimeter=0;fillColor=#6d8764;strokeColor=#3A5431;strokeWidth=5;exitX=1;exitY=0.15;exitDx=0;exitDy=0;exitPerimeter=0;" edge="1" parent="1" source="avrPTktZGKtekzQquFCX-8" target="avrPTktZGKtekzQquFCX-16">
          <mxGeometry relative="1" as="geometry">
            <Array as="points">
              <mxPoint x="374" y="631" />
              <mxPoint x="374" y="579" />
              <mxPoint x="564" y="579" />
              <mxPoint x="564" y="606" />
            </Array>
          </mxGeometry>
        </mxCell>
        <mxCell id="avrPTktZGKtekzQquFCX-18" value="Motor Control" style="edgeLabel;html=1;align=center;verticalAlign=middle;resizable=0;points=[];" vertex="1" connectable="0" parent="avrPTktZGKtekzQquFCX-17">
          <mxGeometry x="-0.1652" y="-3" relative="1" as="geometry">
            <mxPoint x="18" y="-2" as="offset" />
          </mxGeometry>
        </mxCell>
        <mxCell id="avrPTktZGKtekzQquFCX-19" style="edgeStyle=orthogonalEdgeStyle;rounded=0;orthogonalLoop=1;jettySize=auto;html=1;entryX=0.5;entryY=0;entryDx=0;entryDy=0;fillColor=#ffe6cc;strokeColor=#d79b00;strokeWidth=4;" edge="1" parent="1" source="avrPTktZGKtekzQquFCX-20" target="avrPTktZGKtekzQquFCX-23">
          <mxGeometry relative="1" as="geometry" />
        </mxCell>
        <mxCell id="avrPTktZGKtekzQquFCX-20" value="Host" style="html=1;rounded=0;shadow=0;comic=0;labelBackgroundColor=none;strokeWidth=2;fontFamily=Verdana;fontSize=12;align=center;shape=mxgraph.ios7ui.horLines;fillColor=#f8cecc;strokeColor=#b85450;" vertex="1" parent="1">
          <mxGeometry x="824" y="697" width="135" height="50" as="geometry" />
        </mxCell>
        <mxCell id="avrPTktZGKtekzQquFCX-21" value="FSM Planner" style="swimlane;html=1;fontStyle=0;childLayout=stackLayout;horizontal=1;startSize=26;fillColor=#dae8fc;horizontalStack=0;resizeParent=1;resizeLast=0;collapsible=1;marginBottom=0;swimlaneFillColor=#ffffff;align=center;rounded=1;shadow=0;comic=0;labelBackgroundColor=none;strokeWidth=1;fontFamily=Verdana;fontSize=12;strokeColor=#6c8ebf;" vertex="1" parent="1">
          <mxGeometry x="454" y="860" width="160" height="52" as="geometry" />
        </mxCell>
        <mxCell id="avrPTktZGKtekzQquFCX-22" value="Motor Control" style="text;html=1;strokeColor=none;fillColor=none;spacingLeft=4;spacingRight=4;whiteSpace=wrap;overflow=hidden;rotatable=0;points=[[0,0.5],[1,0.5]];portConstraint=eastwest;" vertex="1" parent="avrPTktZGKtekzQquFCX-21">
          <mxGeometry y="26" width="160" height="26" as="geometry" />
        </mxCell>
        <mxCell id="avrPTktZGKtekzQquFCX-23" value="Livraison" style="swimlane;html=1;fontStyle=0;childLayout=stackLayout;horizontal=1;startSize=26;fillColor=#dae8fc;horizontalStack=0;resizeParent=1;resizeLast=0;collapsible=1;marginBottom=0;swimlaneFillColor=#ffffff;align=center;rounded=1;shadow=0;comic=0;labelBackgroundColor=none;strokeWidth=1;fontFamily=Verdana;fontSize=12;strokeColor=#6c8ebf;" vertex="1" parent="1">
          <mxGeometry x="604" y="707" width="160" height="60" as="geometry" />
        </mxCell>
        <mxCell id="avrPTktZGKtekzQquFCX-24" value="Emplacement Livraison" style="text;html=1;strokeColor=none;fillColor=none;spacingLeft=4;spacingRight=4;whiteSpace=wrap;overflow=hidden;rotatable=0;points=[[0,0.5],[1,0.5]];portConstraint=eastwest;" vertex="1" parent="avrPTktZGKtekzQquFCX-23">
          <mxGeometry y="26" width="160" height="24" as="geometry" />
        </mxCell>
        <mxCell id="avrPTktZGKtekzQquFCX-25" style="edgeStyle=orthogonalEdgeStyle;rounded=0;orthogonalLoop=1;jettySize=auto;html=1;fillColor=#e51400;strokeColor=#B20000;endSize=6;strokeWidth=4;" edge="1" parent="1" source="avrPTktZGKtekzQquFCX-24" target="avrPTktZGKtekzQquFCX-21">
          <mxGeometry relative="1" as="geometry" />
        </mxCell>
        <mxCell id="avrPTktZGKtekzQquFCX-26" style="edgeStyle=orthogonalEdgeStyle;rounded=0;orthogonalLoop=1;jettySize=auto;html=1;entryX=0.006;entryY=0.155;entryDx=0;entryDy=0;entryPerimeter=0;fillColor=#6a00ff;strokeColor=#3700CC;strokeWidth=4;" edge="1" parent="1" source="avrPTktZGKtekzQquFCX-7" target="avrPTktZGKtekzQquFCX-21">
          <mxGeometry relative="1" as="geometry" />
        </mxCell>
        <mxCell id="avrPTktZGKtekzQquFCX-27" style="edgeStyle=orthogonalEdgeStyle;rounded=0;orthogonalLoop=1;jettySize=auto;html=1;entryX=0.25;entryY=0;entryDx=0;entryDy=0;fillColor=#6a00ff;strokeColor=#3700CC;strokeWidth=4;" edge="1" parent="1" source="avrPTktZGKtekzQquFCX-9" target="avrPTktZGKtekzQquFCX-21">
          <mxGeometry relative="1" as="geometry" />
        </mxCell>
        <mxCell id="avrPTktZGKtekzQquFCX-28" value="IR Data, Encoder" style="edgeLabel;html=1;align=center;verticalAlign=middle;resizable=0;points=[];" vertex="1" connectable="0" parent="avrPTktZGKtekzQquFCX-27">
          <mxGeometry x="0.1271" y="-1" relative="1" as="geometry">
            <mxPoint as="offset" />
          </mxGeometry>
        </mxCell>
        <mxCell id="avrPTktZGKtekzQquFCX-29" style="edgeStyle=orthogonalEdgeStyle;rounded=0;orthogonalLoop=1;jettySize=auto;html=1;entryX=0;entryY=0.182;entryDx=0;entryDy=0;fillColor=#6a00ff;strokeColor=#3700CC;strokeWidth=4;entryPerimeter=0;" edge="1" parent="1" source="avrPTktZGKtekzQquFCX-22" target="avrPTktZGKtekzQquFCX-8">
          <mxGeometry relative="1" as="geometry">
            <mxPoint x="354" y="977" as="targetPoint" />
          </mxGeometry>
        </mxCell>
        <mxCell id="avrPTktZGKtekzQquFCX-30" value="Hardware" style="whiteSpace=wrap;html=1;fillColor=#f8cecc;strokeColor=#b85450;" vertex="1" parent="1">
          <mxGeometry x="999" y="537" width="80" height="30" as="geometry" />
        </mxCell>
        <mxCell id="avrPTktZGKtekzQquFCX-31" value="Node" style="whiteSpace=wrap;html=1;fillColor=#dae8fc;strokeColor=#6c8ebf;" vertex="1" parent="1">
          <mxGeometry x="999" y="577" width="80" height="30" as="geometry" />
        </mxCell>
        <mxCell id="avrPTktZGKtekzQquFCX-32" value="Simulation -&amp;gt; Software" style="whiteSpace=wrap;html=1;fillColor=#ffe6cc;strokeColor=#d79b00;strokeWidth=4;" vertex="1" parent="1">
          <mxGeometry x="999" y="617" width="80" height="40" as="geometry" />
        </mxCell>
        <mxCell id="avrPTktZGKtekzQquFCX-33" value="IPC" style="whiteSpace=wrap;html=1;fillColor=#6a00ff;strokeColor=#3700CC;strokeWidth=4;fontColor=#ffffff;" vertex="1" parent="1">
          <mxGeometry x="999" y="667" width="80" height="40" as="geometry" />
        </mxCell>
        <mxCell id="avrPTktZGKtekzQquFCX-34" value="TCP IP" style="whiteSpace=wrap;html=1;fillColor=#e51400;strokeColor=#B20000;strokeWidth=4;fontColor=#ffffff;" vertex="1" parent="1">
          <mxGeometry x="999" y="717" width="80" height="40" as="geometry" />
        </mxCell>
        <mxCell id="avrPTktZGKtekzQquFCX-35" value="Software -&amp;gt; Simulation" style="whiteSpace=wrap;html=1;fillColor=#6d8764;strokeColor=#3A5431;strokeWidth=4;fontColor=#ffffff;" vertex="1" parent="1">
          <mxGeometry x="999" y="767" width="80" height="40" as="geometry" />
        </mxCell>
        <mxCell id="avrPTktZGKtekzQquFCX-36" value="Monitor" style="swimlane;html=1;fontStyle=0;childLayout=stackLayout;horizontal=1;startSize=26;fillColor=#dae8fc;horizontalStack=0;resizeParent=1;resizeLast=0;collapsible=1;marginBottom=0;swimlaneFillColor=#ffffff;align=center;rounded=1;shadow=0;comic=0;labelBackgroundColor=none;strokeWidth=1;fontFamily=Verdana;fontSize=12;strokeColor=#6c8ebf;" vertex="1" parent="1">
          <mxGeometry x="604" y="957" width="160" height="52" as="geometry" />
        </mxCell>
        <mxCell id="avrPTktZGKtekzQquFCX-37" value="Compressed RGB Image" style="text;html=1;strokeColor=none;fillColor=none;spacingLeft=4;spacingRight=4;whiteSpace=wrap;overflow=hidden;rotatable=0;points=[[0,0.5],[1,0.5]];portConstraint=eastwest;" vertex="1" parent="avrPTktZGKtekzQquFCX-36">
          <mxGeometry y="26" width="160" height="26" as="geometry" />
        </mxCell>
        <mxCell id="avrPTktZGKtekzQquFCX-38" style="edgeStyle=orthogonalEdgeStyle;rounded=0;orthogonalLoop=1;jettySize=auto;html=1;entryX=0.659;entryY=1.04;entryDx=0;entryDy=0;fillColor=#6d8764;strokeColor=#3A5431;strokeWidth=4;exitX=1;exitY=0.75;exitDx=0;exitDy=0;entryPerimeter=0;" edge="1" parent="1" source="avrPTktZGKtekzQquFCX-36" target="avrPTktZGKtekzQquFCX-20">
          <mxGeometry relative="1" as="geometry">
            <mxPoint x="834" y="732" as="sourcePoint" />
            <mxPoint x="694" y="717" as="targetPoint" />
          </mxGeometry>
        </mxCell>
        <mxCell id="avrPTktZGKtekzQquFCX-39" style="edgeStyle=orthogonalEdgeStyle;rounded=0;orthogonalLoop=1;jettySize=auto;html=1;fillColor=#e51400;strokeColor=#B20000;endSize=6;strokeWidth=4;exitX=0;exitY=0.5;exitDx=0;exitDy=0;entryX=0.5;entryY=0;entryDx=0;entryDy=0;" edge="1" parent="1" source="avrPTktZGKtekzQquFCX-6" target="avrPTktZGKtekzQquFCX-36">
          <mxGeometry relative="1" as="geometry">
            <mxPoint x="614" y="755" as="sourcePoint" />
            <mxPoint x="514" y="847" as="targetPoint" />
            <Array as="points">
              <mxPoint x="34" y="700" />
              <mxPoint x="34" y="927" />
              <mxPoint x="684" y="927" />
            </Array>
          </mxGeometry>
        </mxCell>
        <mxCell id="avrPTktZGKtekzQquFCX-40" style="edgeStyle=orthogonalEdgeStyle;rounded=0;orthogonalLoop=1;jettySize=auto;html=1;entryX=1;entryY=0.5;entryDx=0;entryDy=0;fillColor=#ffe6cc;strokeColor=#d79b00;strokeWidth=4;exitX=0.467;exitY=0;exitDx=0;exitDy=0;exitPerimeter=0;" edge="1" parent="1" source="avrPTktZGKtekzQquFCX-16" target="avrPTktZGKtekzQquFCX-6">
          <mxGeometry relative="1" as="geometry">
            <Array as="points">
              <mxPoint x="752" y="507" />
              <mxPoint x="434" y="507" />
              <mxPoint x="434" y="700" />
            </Array>
            <mxPoint x="699" y="602" as="sourcePoint" />
            <mxPoint x="254" y="617" as="targetPoint" />
          </mxGeometry>
        </mxCell>
      </root>
    </mxGraphModel>
  </diagram>
</mxfile>
